# xmcd
#
# Track frame offsets:
#	150
#	14627
#	30970
#	52062
#	74075
#	95080
#	114885
#	136730
#	150910
#	166507
#	186420
#	203335
#	224122
#	244617
#	264907
#	277247
#	295245
#	319877
#
# Disc length: 4502 seconds
#
# Revision: 1
# Processed by: cddbd v1.5.1PL0 Copyright (c) Steve Scherf et al.
# Submitted via: CDex 1.50Beta5
#
DISCID=07119412
DTITLE=Kuko・濱田理恵・小杉保夫 - ムカムカパラダイス・サウンドアラカルト！
DYEAR=1900
DGENRE=Soundtrack
TTITLE0=Act.1.オープニング・蘭華の”主役はアタシよ！”
TTITLE1=とっておきのキモチ
TTITLE2=Bgm.恐竜ベイビー
TTITLE3=Act.2.蘭華・葉三にアタック
TTITLE4=Bgm.初葉と葉月と川太と世之と
TTITLE5=いつもムカムカといっしょ
TTITLE6=Act.3.「ムカムカクイズ』に挑戦！
TTITLE7=ムカムカのココロ
TTITLE8=Bgm.ムカムカ！いーかげんにしなさい!!
TTITLE9=Act.4.蘭華の白雪姫？
TTITLE10=Bgm.ムカムカ赤ちゃんと初葉ママ
TTITLE11=本気じゃないのに…
TTITLE12=Bgm.恐竜ランドへようこそ！
TTITLE13=Act.5.そして誰もいなくなった・ピクニック編
TTITLE14=われらフレンドザウルス〜おかしなおかしなネバーランド〜
TTITLE15=Bgm.ときには美しく・そしてさわやかに
TTITLE16=Act.6.蘭華の子守歌…？
TTITLE17=キテーラ・ミテーラ！
EXTD=
EXTT0=
EXTT1=
EXTT2=
EXTT3=
EXTT4=
EXTT5=
EXTT6=
EXTT7=
EXTT8=
EXTT9=
EXTT10=
EXTT11=
EXTT12=
EXTT13=
EXTT14=
EXTT15=
EXTT16=
EXTT17=
PLAYORDER=
